<?xml version="1.0" encoding="UTF-8" standalone="no"?>
<!DOCTYPE svg PUBLIC "-//W3C//DTD SVG 1.0//EN" "http://www.w3.org/TR/2001/REC-SVG-20010904/DTD/svg10.dtd">
<!-- Generated by Microsoft Visio 11.0, SVG Export, v1.0 jado-icon.svg Page-1 -->
<svg xmlns="http://www.w3.org/2000/svg" xmlns:xlink="http://www.w3.org/1999/xlink" xmlns:ev="http://www.w3.org/2001/xml-events"
		xmlns:v="http://schemas.microsoft.com/visio/2003/SVGExtensions/" width="1.02083in" height="1.02083in"
		viewBox="0 0 73.5 73.5" xml:space="preserve" color-interpolation-filters="sRGB" class="st3">
	<v:documentProperties v:langID="1033" v:viewMarkup="false"/>

	<style type="text/css">
	<![CDATA[
		.st1 {fill:#2e2d66;stroke:none;stroke-linecap:round;stroke-linejoin:round;stroke-width:0.75}
		.st2 {fill:#2e2d66;stroke:none;stroke-linecap:round;stroke-linejoin:round;stroke-width:0.24}
		.st3 {fill:none;fill-rule:evenodd;font-size:12px;overflow:visible;stroke-linecap:square;stroke-miterlimit:3}
	]]>
	</style>

	<g v:mID="0" v:index="1" v:groupContext="foregroundPage">
		<title>Page-1</title>
		<v:pageProperties v:drawingScale="1" v:pageScale="1" v:drawingUnits="19" v:shadowOffsetX="9" v:shadowOffsetY="-9"/>
		<g id="group38-1" transform="translate(0.75,-0.75)" v:mID="38" v:groupContext="group">
			<title>Sheet.38</title>
			<g id="shape19-2" v:mID="19" v:groupContext="shape">
				<title>Sheet.19</title>
				<path d="M18 1.5 L4.5 1.5 A4.5 4.5 -180 0 0 -0 6 L0 69 A4.5 4.5 -180 0 0 4.5 73.5 L18 73.5 L18 66.75 L6.75 66.75
							 L6.75 8.25 L18 8.25 L18 1.5 Z" class="st1"/>
			</g>
			<g id="shape20-4" v:mID="20" v:groupContext="shape" transform="translate(72,75) rotate(180)">
				<title>Sheet.20</title>
				<path d="M18 1.5 L4.5 1.5 A4.5 4.5 -180 0 0 -0 6 L0 69 A4.5 4.5 -180 0 0 4.5 73.5 L18 73.5 L18 66.75 L6.75 66.75
							 L6.75 8.25 L18 8.25 L18 1.5 Z" class="st1"/>
			</g>
			<g id="shape21-6" v:mID="21" v:groupContext="shape" transform="translate(19.4581,-14.9448) rotate(-0.3)">
				<title>Sheet.21</title>
				<path d="M24.75 29.51 L16.2 16.53 L7.88 29.42 L7.77 49.67 L0 57.99 L0 73.5 L12.75 61.09 L15.85 73.5 L18.95 61.09
							 L32.4 73.5 L32.4 58.34 L24.64 49.76 L24.75 29.51 Z" class="st1"/>
			</g>
			<g id="shape22-8" v:mID="22" v:groupContext="shape" transform="translate(20.8125,-1.125)">
				<title>Circle</title>
				<v:userDefs>
					<v:ud v:nameU="visVersion" v:val="VT0(14):26"/>
				</v:userDefs>
				<path d="M0 69.56 A3.9375 3.9375 0 0 1 7.87 69.56 A3.9375 3.9375 0 1 1 0 69.56 Z" class="st2"/>
			</g>
			<g id="shape23-10" v:mID="23" v:groupContext="shape" transform="translate(32.0625,-1.125)">
				<title>Circle.7</title>
				<v:userDefs>
					<v:ud v:nameU="visVersion" v:val="VT0(14):26"/>
				</v:userDefs>
				<path d="M0 69.56 A3.9375 3.9375 0 0 1 7.87 69.56 A3.9375 3.9375 0 1 1 0 69.56 Z" class="st2"/>
			</g>
			<g id="shape24-12" v:mID="24" v:groupContext="shape" transform="translate(43.3125,-1.125)">
				<title>Circle.9</title>
				<v:userDefs>
					<v:ud v:nameU="visVersion" v:val="VT0(14):26"/>
				</v:userDefs>
				<path d="M0 69.56 A3.9375 3.9375 0 0 1 7.87 69.56 A3.9375 3.9375 0 1 1 0 69.56 Z" class="st2"/>
			</g>
		</g>
	</g>
</svg>
